<?xml version="1.0" encoding="UTF-8" standalone="no"?>
<!DOCTYPE svg PUBLIC "-//W3C//DTD SVG 1.1//EN"
 "http://www.w3.org/Graphics/SVG/1.1/DTD/svg11.dtd">
<!-- Generated by graphviz version 2.30.1 (20180420.1509)
 -->
<!-- Title: snakemake_dag Pages: 1 -->
<svg width="62pt" height="188pt"
 viewBox="0.00 0.00 62.00 188.00" xmlns="http://www.w3.org/2000/svg" xmlns:xlink="http://www.w3.org/1999/xlink">
<g id="graph0" class="graph" transform="scale(1 1) rotate(0) translate(4 184)">
<title>snakemake_dag</title>
<polygon fill="white" stroke="white" points="-4,5 -4,-184 59,-184 59,5 -4,5"/>
<!-- 0 -->
<g id="node1" class="node"><title>0</title>
<path fill="none" stroke="#afd856" stroke-width="2" d="M42,-36C42,-36 12,-36 12,-36 6,-36 0,-30 0,-24 0,-24 0,-12 0,-12 0,-6 6,-0 12,-0 12,-0 42,-0 42,-0 48,-0 54,-6 54,-12 54,-12 54,-24 54,-24 54,-30 48,-36 42,-36"/>
<text text-anchor="middle" x="27" y="-15.5" font-family="sans" font-size="10.00">all</text>
</g>
<!-- 1 -->
<g id="node2" class="node"><title>1</title>
<path fill="none" stroke="#d85656" stroke-width="2" d="M42.25,-108C42.25,-108 11.75,-108 11.75,-108 5.75,-108 -0.25,-102 -0.25,-96 -0.25,-96 -0.25,-84 -0.25,-84 -0.25,-78 5.75,-72 11.75,-72 11.75,-72 42.25,-72 42.25,-72 48.25,-72 54.25,-78 54.25,-84 54.25,-84 54.25,-96 54.25,-96 54.25,-102 48.25,-108 42.25,-108"/>
<text text-anchor="middle" x="27" y="-87.5" font-family="sans" font-size="10.00">decomp</text>
</g>
<!-- 1&#45;&gt;0 -->
<g id="edge1" class="edge"><title>1&#45;&gt;0</title>
<path fill="none" stroke="grey" stroke-width="2" d="M27,-71.6966C27,-63.9827 27,-54.7125 27,-46.1124"/>
<polygon fill="grey" stroke="grey" points="30.5001,-46.1043 27,-36.1043 23.5001,-46.1044 30.5001,-46.1043"/>
</g>
<!-- 2 -->
<g id="node3" class="node"><title>2</title>
<path fill="none" stroke="#56d8a9" stroke-width="2" d="M42,-180C42,-180 12,-180 12,-180 6,-180 0,-174 0,-168 0,-168 0,-156 0,-156 0,-150 6,-144 12,-144 12,-144 42,-144 42,-144 48,-144 54,-150 54,-156 54,-156 54,-168 54,-168 54,-174 48,-180 42,-180"/>
<text text-anchor="middle" x="27" y="-159.5" font-family="sans" font-size="10.00">dl_files</text>
</g>
<!-- 2&#45;&gt;1 -->
<g id="edge2" class="edge"><title>2&#45;&gt;1</title>
<path fill="none" stroke="grey" stroke-width="2" d="M27,-143.697C27,-135.983 27,-126.712 27,-118.112"/>
<polygon fill="grey" stroke="grey" points="30.5001,-118.104 27,-108.104 23.5001,-118.104 30.5001,-118.104"/>
</g>
</g>
</svg>
